<?xml version="1.0" encoding="utf-8"?>
<!-- Generator: Adobe Illustrator 16.0.3, SVG Export Plug-In . SVG Version: 6.00 Build 0)  -->
<!DOCTYPE svg PUBLIC "-//W3C//DTD SVG 1.1//EN" "http://www.w3.org/Graphics/SVG/1.1/DTD/svg11.dtd">
<svg version="1.1" id="Layer_1" xmlns="http://www.w3.org/2000/svg" xmlns:xlink="http://www.w3.org/1999/xlink" x="0px" y="0px"
	 width="960px" height="560px" viewBox="0 0 960 560" enable-background="new 0 0 960 560" xml:space="preserve">
<g>
	<path fill="#0E78B2" d="M563.698,272.826c-9.461,22.042-22.354,41.173-38.574,57.393c-16.22,16.22-35.246,29.113-57.081,38.574
		c-21.834,9.462-45.229,14.244-70.286,14.244c-25.058,0-48.452-4.782-70.286-14.244c-21.834-9.461-40.861-22.354-57.082-38.574
		c-16.22-16.22-29.112-35.351-38.574-57.393c-9.461-22.042-14.245-45.332-14.245-70.078c0-25.058,4.783-48.452,14.245-70.286
		s22.354-40.861,38.574-57.081c16.22-16.22,35.247-29.113,57.082-38.574c21.834-9.462,45.229-14.245,70.286-14.245
		c25.057,0,48.452,4.783,70.286,14.245c21.835,9.461,40.861,22.354,57.081,38.574c16.221,16.22,29.113,35.247,38.574,57.081
		c9.462,21.834,14.244,45.229,14.244,70.286C577.942,227.494,573.16,250.888,563.698,272.826z M397.653,340.929
		c18.923,0,36.807-3.64,53.546-10.918c16.74-7.277,31.4-17.155,43.877-29.736c12.477-12.477,22.458-27.137,29.736-43.876
		s10.917-34.623,10.917-53.546c0-19.339-3.639-37.327-10.917-54.066s-17.155-31.296-29.736-43.668
		c-12.477-12.373-27.137-22.146-43.877-29.425c-16.739-7.278-34.623-10.917-53.546-10.917c-18.923,0-36.807,3.639-53.546,10.917
		c-16.74,7.278-31.4,17.052-43.876,29.425c-12.477,12.373-22.458,26.929-29.736,43.668c-7.278,16.74-10.917,34.727-10.917,54.066
		c0,18.923,3.639,36.806,10.917,53.546c7.278,16.74,17.155,31.4,29.736,43.876c12.477,12.478,27.137,22.459,43.876,29.736
		C360.847,337.289,378.73,340.929,397.653,340.929z M725.688,456.65c7.799,7.798,11.646,17.26,11.646,28.385
		s-3.847,20.482-11.646,27.969l-11.645,11.646c-7.798,7.798-17.155,11.645-28.177,11.645s-20.379-3.847-28.177-11.645
		L515.975,382.518c13.517-8.838,25.89-19.027,37.015-30.672c11.125-11.646,20.795-24.434,28.904-38.366L725.688,456.65z"/>
</g>
</svg>
